<?xml version="1.0" encoding="UTF-8"?>
<svg id="Layer_2" data-name="Layer 2" xmlns="http://www.w3.org/2000/svg" viewBox="0 0 453.24 453.24">
  <defs>
    <style>
      .cls-1 {
        fill: none;
      }
    </style>
  </defs>
  <g id="Layer_1-2" data-name="Layer 1">
    <g>
      <path d="M331.76,90.6c-17.56-22.13-43.17-27.74-70.32-26.77-8.35.3-15.48.97-21.7,1.92-7.42-1.73-15.32-2.24-23.41-1.95-47.68,1.71-43.44,18.94-73.85,33.01-33.26,15.38-30.55,42.76-41.62,57.94-16.21,22.23-22.62,47.51-20.7,74.87.34,4.78,1.1,9.35,2.3,13.68-2.47,13.25-3.18,26.98-2.19,41.14,1.82,25.92,12.98,47.11,34.8,61.6,7.82,5.19,15.26,13.76,21.83,20.75,36.88,39.31,77.19,16.3,94.46,13.22,31.23-5.57,57.89-17.68,80.84-40.17,10.94-10.72,18.2-24.27,26.19-37.73,5.72-9.63,13.34-18.18,17.54-28.95,22.06-56.56,31.92-141.85-24.17-182.58h0ZM245.94,217.13c3.72-6.27,8.68-11.84,11.42-18.85,13.51-34.66,19.99-85.88-9.72-113.9,3.42,2.34,6.59,5.24,9.43,8.8.06.08.13.15.21.2,36.39,26.55,29.96,82.01,15.62,118.81-2.73,7.01-7.69,12.58-11.42,18.85-5.2,8.76-9.93,17.59-17.06,24.57-14.95,14.64-32.31,22.53-52.64,26.16-11.25,2.01-37.49,16.99-61.51-8.61-.01-.02-.03-.03-.04-.05-.88-.94.14-2.42,1.34-1.94,18.54,7.43,36.04-1.76,44.68-3.31,20.34-3.63,37.7-11.51,52.64-26.16,7.12-6.98,11.85-15.8,17.06-24.57h0ZM336.7,261.25c-3.64,9.33-10.24,16.74-15.19,25.08-6.93,11.66-13.22,23.4-22.69,32.69-19.88,19.48-42.98,29.97-70.04,34.8-14.96,2.67-49.89,22.61-81.84-11.45-.02-.02-.04-.04-.06-.06-1.18-1.26.18-3.22,1.78-2.58,24.66,9.89,47.94-2.35,59.44-4.4,27.06-4.83,50.16-15.32,70.04-34.8,9.48-9.28,15.77-21.03,22.69-32.69,4.95-8.34,11.55-15.75,15.19-25.08,17.98-46.11,26.6-114.26-12.93-151.54,4.55,3.11,8.76,6.97,12.54,11.7.08.1.17.19.28.27,48.41,35.33,39.87,109.12,20.78,158.07Z"/>
      <rect class="cls-1" width="453.24" height="453.24"/>
    </g>
  </g>
</svg>