<?xml version="1.0" encoding="UTF-8"?>
<svg id="Layer_2" data-name="Layer 2" xmlns="http://www.w3.org/2000/svg" viewBox="0 0 667.65 76.15">
  <defs>
    <style>
      .cls-1 {
        fill: #191919;
      }
    </style>
  </defs>
  <g id="Layer_1-2" data-name="Layer 1">
    <g>
      <path class="cls-1" d="M58.89,6.28C54.78,1.11,48.8-.2,42.45.02c-1.95.07-3.62.23-5.07.45-1.73-.4-3.58-.52-5.47-.46-11.14.4-10.15,4.43-17.26,7.72-7.77,3.6-7.14,10-9.73,13.54C1.13,26.47-.37,32.38.08,38.78c.08,1.12.26,2.19.54,3.2-.58,3.1-.74,6.31-.51,9.62.43,6.06,3.03,11.01,8.13,14.4,1.83,1.21,3.57,3.22,5.1,4.85,8.62,9.19,18.04,3.81,22.08,3.09,7.3-1.3,13.53-4.13,18.9-9.39,2.56-2.5,4.25-5.67,6.12-8.82,1.34-2.25,3.12-4.25,4.1-6.77,5.16-13.22,7.46-33.16-5.65-42.68h0ZM38.83,35.86c.87-1.46,2.03-2.77,2.67-4.41,3.16-8.1,4.67-20.07-2.27-26.62.8.55,1.54,1.22,2.2,2.06.01.02.03.03.05.05,8.51,6.21,7,19.17,3.65,27.77-.64,1.64-1.8,2.94-2.67,4.41-1.22,2.05-2.32,4.11-3.99,5.74-3.49,3.42-7.55,5.27-12.31,6.11-2.63.47-8.76,3.97-14.38-2.01,0,0,0,0-.01-.01-.21-.22.03-.57.31-.45,4.33,1.74,8.42-.41,10.44-.77,4.75-.85,8.81-2.69,12.31-6.11,1.66-1.63,2.77-3.69,3.99-5.74h0ZM60.04,46.17c-.85,2.18-2.39,3.91-3.55,5.86-1.62,2.73-3.09,5.47-5.3,7.64-4.65,4.55-10.05,7.01-16.37,8.13-3.5.62-11.66,5.28-19.13-2.68,0,0,0-.01-.01-.01-.28-.29.04-.75.42-.6,5.77,2.31,11.21-.55,13.89-1.03,6.33-1.13,11.72-3.58,16.37-8.13,2.21-2.17,3.69-4.92,5.3-7.64,1.16-1.95,2.7-3.68,3.55-5.86,4.2-10.78,6.22-26.71-3.02-35.42,1.06.73,2.05,1.63,2.93,2.74.02.02.04.04.07.06,11.32,8.26,9.32,25.51,4.86,36.95Z"/>
      <g>
        <path d="M119.33,66.25l-14.73-43.95h-.3c.05,1,.12,2.42.23,4.24.1,1.83.19,3.81.26,5.93.08,2.13.11,4.12.11,5.97v27.8h-8.64V12.61h13.37l14.13,42.15h.3l14.73-42.15h13.37v53.64h-9.17v-28.25c0-1.7.04-3.57.11-5.6.08-2.03.15-3.96.22-5.79.08-1.83.14-3.24.19-4.25h-.3l-15.33,43.88h-8.56Z"/>
        <path d="M178.68,24.78c3.66,0,6.81.73,9.47,2.18,2.65,1.45,4.7,3.56,6.12,6.31,1.43,2.76,2.14,6.09,2.14,9.99v4.88h-26.82c.1,3.66,1.13,6.49,3.08,8.49s4.73,3,8.34,3c2.55,0,4.86-.25,6.91-.75,2.05-.5,4.16-1.23,6.31-2.18v7.52c-2,.95-4.08,1.65-6.23,2.1-2.15.45-4.76.68-7.82.68-3.96,0-7.48-.76-10.56-2.29-3.08-1.53-5.48-3.84-7.21-6.95-1.73-3.11-2.59-6.96-2.59-11.57s.79-8.58,2.37-11.76c1.58-3.18,3.78-5.59,6.61-7.21,2.83-1.63,6.12-2.44,9.88-2.44ZM178.83,31.84c-2.61,0-4.7.83-6.27,2.48-1.58,1.65-2.49,4.03-2.74,7.14h17.36c0-1.9-.3-3.57-.9-5-.6-1.43-1.51-2.55-2.74-3.38s-2.79-1.24-4.7-1.24Z"/>
        <path d="M216.63,67c-4.71,0-8.53-1.78-11.46-5.33-2.93-3.56-4.39-8.79-4.39-15.7s1.48-12.3,4.43-15.85c2.95-3.56,6.84-5.33,11.65-5.33,2,0,3.74.26,5.22.79,1.48.52,2.77,1.24,3.87,2.14,1.1.9,2.03,1.9,2.78,3h.38c-.1-.8-.21-1.94-.34-3.42-.12-1.48-.19-2.79-.19-3.94v-14.2h9.62v57.1h-7.44l-1.8-5.33h-.38c-.75,1.1-1.67,2.12-2.74,3.04-1.08.93-2.38,1.67-3.91,2.22-1.53.55-3.3.83-5.3.83ZM219.48,59.26c3.5,0,5.99-.99,7.44-2.97s2.18-5,2.18-9.05v-1.2c0-4.36-.69-7.7-2.07-10.03-1.38-2.33-3.92-3.5-7.63-3.5-2.85,0-5.05,1.19-6.57,3.57s-2.29,5.72-2.29,10.03.76,7.58,2.29,9.81c1.53,2.23,3.74,3.34,6.65,3.34Z"/>
        <path d="M251.79,9.75c1.4,0,2.63.38,3.68,1.13s1.58,2.05,1.58,3.91-.53,3.1-1.58,3.87-2.28,1.17-3.68,1.17c-1.5,0-2.77-.39-3.79-1.17-1.03-.78-1.54-2.07-1.54-3.87s.51-3.16,1.54-3.91c1.02-.75,2.29-1.13,3.79-1.13ZM256.44,25.53v40.72h-9.54V25.53h9.54Z"/>
        <path d="M301.38,25.53v40.72h-7.44l-1.35-5.26h-.45c-.85,1.4-1.95,2.54-3.31,3.42-1.35.88-2.82,1.53-4.4,1.95-1.58.42-3.24.64-5,.64-3,0-5.61-.51-7.81-1.54-2.21-1.02-3.88-2.64-5.03-4.84-1.15-2.2-1.73-5.03-1.73-8.49v-26.6h9.54v24.64c0,3,.6,5.27,1.8,6.8,1.2,1.53,3.08,2.29,5.64,2.29s4.56-.52,6.01-1.58c1.45-1.05,2.48-2.62,3.08-4.7.6-2.08.9-4.62.9-7.63v-19.84h9.54Z"/>
        <path d="M356.75,24.78c4.61,0,8.09,1.18,10.44,3.53,2.35,2.35,3.53,6.16,3.53,11.42v26.52h-9.47v-24.64c0-3.16-.58-5.47-1.73-6.95-1.15-1.48-2.91-2.21-5.26-2.21-3.3,0-5.65,1.09-7.02,3.27-1.38,2.18-2.07,5.3-2.07,9.35v21.19h-9.54v-24.64c0-2.1-.25-3.82-.75-5.15-.5-1.33-1.27-2.33-2.29-3s-2.32-1.01-3.87-1.01c-2.35,0-4.18.55-5.49,1.65-1.3,1.1-2.23,2.68-2.78,4.73s-.83,4.58-.83,7.59v19.84h-9.54V25.53h7.44l1.35,5.33h.38c.8-1.3,1.8-2.42,3.01-3.34,1.2-.92,2.58-1.61,4.13-2.07,1.55-.45,3.2-.68,4.96-.68,3.1,0,5.67.52,7.7,1.58,2.03,1.05,3.59,2.66,4.7,4.81h.38c1.35-2.15,3.14-3.76,5.37-4.81,2.23-1.05,4.64-1.58,7.25-1.58Z"/>
        <path d="M406.34,66.25h-9.47V12.61h30.43v8.04h-20.96v15.78h19.54v8.04h-19.54v21.79Z"/>
        <path d="M469.9,45.82c0,3.36-.45,6.35-1.35,8.98-.9,2.63-2.19,4.86-3.87,6.69-1.68,1.83-3.73,3.21-6.16,4.13-2.43.92-5.15,1.39-8.15,1.39-2.81,0-5.39-.46-7.74-1.39-2.36-.93-4.38-2.3-6.09-4.13-1.7-1.83-3.04-4.06-4.02-6.69-.98-2.63-1.47-5.62-1.47-8.98,0-4.56.79-8.39,2.37-11.5,1.58-3.1,3.82-5.47,6.72-7.1,2.91-1.63,6.39-2.44,10.45-2.44,3.8,0,7.15.81,10.03,2.44,2.88,1.63,5.15,4,6.8,7.1,1.65,3.11,2.48,6.94,2.48,11.5ZM440.82,45.82c0,2.8.34,5.25,1.01,7.32.68,2.08,1.73,3.67,3.16,4.77,1.43,1.1,3.27,1.65,5.52,1.65s4.09-.55,5.52-1.65c1.43-1.1,2.47-2.69,3.12-4.77.65-2.08.98-4.52.98-7.32s-.34-5.36-1.01-7.36-1.72-3.54-3.12-4.62c-1.4-1.08-3.26-1.62-5.56-1.62-3.36,0-5.8,1.19-7.33,3.57-1.53,2.38-2.29,5.72-2.29,10.03Z"/>
        <path d="M497.7,24.78c.75,0,1.57.04,2.44.11.88.07,1.59.19,2.14.34l-.98,8.86c-.6-.1-1.29-.2-2.07-.3-.78-.1-1.62-.15-2.52-.15-1.3,0-2.58.23-3.83.68-1.25.45-2.4,1.15-3.46,2.11s-1.88,2.14-2.48,3.57-.9,3.14-.9,5.15v21.11h-9.54V25.53h7.36l1.35,7.06h.45c.8-1.45,1.8-2.78,3.01-3.98,1.2-1.2,2.57-2.14,4.1-2.82,1.53-.68,3.17-1.01,4.92-1.01Z"/>
        <path d="M552.77,24.78c4.61,0,8.09,1.18,10.44,3.53,2.35,2.35,3.53,6.16,3.53,11.42v26.52h-9.47v-24.64c0-3.16-.58-5.47-1.73-6.95-1.15-1.48-2.91-2.21-5.26-2.21-3.3,0-5.65,1.09-7.02,3.27-1.38,2.18-2.07,5.3-2.07,9.35v21.19h-9.54v-24.64c0-2.1-.25-3.82-.75-5.15-.5-1.33-1.27-2.33-2.29-3s-2.32-1.01-3.87-1.01c-2.35,0-4.18.55-5.49,1.65-1.3,1.1-2.23,2.68-2.78,4.73s-.83,4.58-.83,7.59v19.84h-9.54V25.53h7.44l1.35,5.33h.38c.8-1.3,1.8-2.42,3.01-3.34,1.2-.92,2.58-1.61,4.13-2.07,1.55-.45,3.2-.68,4.96-.68,3.1,0,5.67.52,7.7,1.58,2.03,1.05,3.59,2.66,4.7,4.81h.38c1.35-2.15,3.14-3.76,5.37-4.81,2.23-1.05,4.64-1.58,7.25-1.58Z"/>
        <path d="M592.37,24.78c5.06,0,8.88,1.17,11.46,3.49,2.58,2.33,3.87,5.87,3.87,10.63v27.35h-6.76l-1.8-5.63h-.3c-1.15,1.45-2.34,2.65-3.57,3.61s-2.64,1.65-4.24,2.1-3.53.68-5.79.68c-2.4,0-4.57-.45-6.5-1.35-1.93-.9-3.44-2.28-4.54-4.13-1.1-1.85-1.65-4.21-1.65-7.06,0-4.16,1.57-7.33,4.7-9.51,3.13-2.18,7.85-3.37,14.16-3.57l6.84-.23v-1.73c0-2.75-.63-4.7-1.88-5.82s-2.98-1.69-5.18-1.69c-1.95,0-3.9.31-5.82.94-1.93.63-3.8,1.34-5.6,2.14l-2.85-6.61c2-1.1,4.33-1.98,6.99-2.63,2.65-.65,5.49-.98,8.49-.98ZM593.27,47.17c-4.11.2-6.96.89-8.56,2.07-1.61,1.18-2.41,2.84-2.41,5,0,1.91.58,3.32,1.73,4.25s2.63,1.39,4.43,1.39c2.75,0,5.07-.8,6.95-2.41,1.88-1.6,2.82-3.93,2.82-6.99v-3.46l-4.96.15Z"/>
        <path d="M632.19,59.41c1.2,0,2.35-.11,3.46-.34,1.1-.23,2.13-.49,3.08-.79v7.06c-1,.45-2.3.84-3.91,1.17-1.6.33-3.28.49-5.03.49-2.3,0-4.4-.39-6.27-1.17-1.88-.78-3.38-2.11-4.51-4.02-1.13-1.9-1.69-4.56-1.69-7.96v-21.19h-5.49v-4.13l6.01-3.3,3.01-8.64h5.93v8.94h11.57v7.14h-11.57v21.11c0,1.9.5,3.32,1.5,4.24s2.3,1.39,3.91,1.39Z"/>
        <path d="M656.47,31.89c-1.63,0-3.12-.27-4.48-.82s-2.55-1.33-3.55-2.33-1.78-2.19-2.33-3.55c-.55-1.36-.82-2.85-.82-4.48s.28-3.05.84-4.41c.56-1.35,1.34-2.53,2.35-3.55s2.19-1.81,3.55-2.38c1.36-.57,2.85-.85,4.45-.85s2.99.27,4.34.82c1.35.55,2.54,1.33,3.57,2.33,1.03,1.01,1.83,2.19,2.41,3.55.58,1.36.87,2.85.87,4.48s-.28,3.12-.82,4.48c-.55,1.36-1.33,2.55-2.33,3.55s-2.19,1.78-3.55,2.33c-1.36.55-2.86.82-4.48.82ZM656.47,30.06c1.28,0,2.47-.23,3.58-.69,1.11-.46,2.08-1.11,2.93-1.95.84-.84,1.5-1.83,1.98-2.97.48-1.14.72-2.39.72-3.75s-.23-2.51-.69-3.64c-.46-1.13-1.1-2.12-1.94-2.99-.83-.86-1.81-1.54-2.93-2.03-1.12-.49-2.34-.73-3.66-.73s-2.57.23-3.69.7c-1.12.47-2.09,1.12-2.93,1.95-.83.83-1.48,1.82-1.95,2.97-.47,1.15-.7,2.4-.7,3.76s.23,2.58.69,3.72c.46,1.14,1.1,2.13,1.92,2.97s1.8,1.5,2.93,1.97,2.37.7,3.74.7ZM652.2,27.38v-13.41h3.99c1.67,0,2.89.34,3.66,1.02s1.16,1.68,1.16,3c0,.96-.24,1.71-.73,2.27-.49.56-1.04.96-1.65,1.2l3.54,5.91h-2.71l-2.96-5.18h-1.89v5.18h-2.41ZM656.13,20.22c.79,0,1.4-.2,1.81-.61.42-.41.63-.93.63-1.56,0-.71-.19-1.23-.56-1.56s-1.01-.49-1.9-.49h-1.49v4.21h1.52Z"/>
      </g>
    </g>
  </g>
</svg>