<svg xmlns="http://www.w3.org/2000/svg" viewBox="0 0 1080 1080" role="img" aria-label="Medium Format">
  <style>
    path{fill:#000}
    @media (prefers-color-scheme: dark){ path{fill:#fff} }
  </style>
  <path d="M858.21,130.64c-53.14-66.98-130.64-83.97-212.83-81.02-25.27.91-46.84,2.92-65.66,5.82-22.46-5.24-46.36-6.78-70.85-5.9-144.29,5.17-131.46,57.34-223.49,99.9-100.65,46.56-92.46,129.42-125.95,175.35-49.06,67.27-68.46,143.78-62.64,226.59,1.02,14.48,3.33,28.3,6.95,41.41-7.49,40.09-9.63,81.66-6.62,124.51,5.51,78.44,39.27,142.57,105.31,186.44,23.67,15.72,46.2,41.64,66.06,62.8,111.62,118.98,233.6,49.34,285.88,40.01,94.53-16.87,175.2-53.51,244.66-121.56,33.1-32.43,55.07-73.46,79.26-114.18,17.31-29.13,40.36-55.02,53.07-87.61,66.75-171.18,96.6-429.31-73.14-552.56ZM247.28,694.57c-2.68-2.86-46.16-25.29-42.52-23.83,56.1,22.5,109.06-5.34,135.22-10.01,61.55-10.98,114.09-34.85,159.32-79.16,21.55-21.12,35.86-47.84,51.62-74.36,11.27-18.97,26.28-35.83,34.56-57.05,40.9-104.89,108.09-250.09,18.17-334.9,10.35,7.07,19.93,15.85,28.53,26.62.18.23.4.44.64.61,110.13,80.36,90.69,248.21,47.27,359.56-8.27,21.22-23.29,38.08-34.56,57.05-15.76,26.52-30.06,53.24-51.62,74.36-45.24,44.31-97.77,68.18-159.32,79.16-34.04,6.07-114.62,59.42-187.3-18.06ZM873.17,650.54c-11.01,28.23-30.98,50.66-45.98,75.9-20.96,35.28-39.99,70.83-68.67,98.93-60.18,58.96-130.08,90.71-211.97,105.32-45.29,8.08-150.98,68.42-247.68-34.67-.06-.06-.12-.13-.18-.19-3.56-3.8-40.36-36.05-35.52-34.11,74.64,29.93,145.1-7.11,179.9-13.32,81.9-14.61,151.79-46.36,211.97-105.32,28.68-28.09,47.71-63.64,68.67-98.93,14.99-25.24,34.97-47.67,45.98-75.9,54.41-139.56,121.41-319.5,1.78-432.33,13.78,9.41,30.33,19.61,41.77,33.94.24.31,1.86,1.51,2.17,1.74,146.52,106.92,115.52,330.78,57.75,478.94Z"/>
</svg>
