<?xml version="1.0" encoding="UTF-8"?>
<svg id="Layer_2" data-name="Layer 2" xmlns="http://www.w3.org/2000/svg" viewBox="0 0 590.05 59.74">
  <g id="Layer_1-2" data-name="Layer 1">
    <g>
      <path d="M23.82,58.97L8.61,13.58h-.31c.05,1.04.13,2.5.23,4.38.1,1.89.19,3.93.27,6.13.08,2.2.12,4.26.12,6.17v28.71H0V3.57h13.81l14.59,43.53h.31L43.91,3.57h13.81v55.4h-9.47v-29.17c0-1.76.04-3.69.12-5.78.08-2.1.16-4.09.23-5.97.08-1.89.14-3.35.2-4.39h-.31l-15.83,45.31h-8.84Z"/>
      <path d="M85.11,16.14c3.78,0,7.04.75,9.78,2.25,2.74,1.5,4.85,3.67,6.32,6.52,1.47,2.85,2.21,6.28,2.21,10.32v5.04h-27.7c.1,3.78,1.16,6.7,3.18,8.77s4.89,3.1,8.61,3.1c2.64,0,5.02-.26,7.14-.78,2.12-.52,4.29-1.27,6.52-2.25v7.76c-2.07.98-4.22,1.71-6.44,2.17-2.22.47-4.92.7-8.07.7-4.09,0-7.72-.79-10.9-2.37-3.18-1.58-5.66-3.97-7.45-7.18-1.78-3.21-2.67-7.19-2.67-11.95s.81-8.86,2.44-12.14c1.63-3.28,3.91-5.77,6.83-7.45,2.92-1.68,6.32-2.52,10.2-2.52ZM85.27,23.43c-2.69,0-4.85.85-6.48,2.56-1.63,1.71-2.57,4.17-2.83,7.37h17.92c0-1.97-.31-3.69-.93-5.16-.62-1.47-1.56-2.64-2.83-3.49s-2.88-1.28-4.85-1.28Z"/>
      <path d="M124.3,59.74c-4.86,0-8.81-1.83-11.83-5.51-3.02-3.67-4.54-9.08-4.54-16.22s1.52-12.7,4.58-16.37c3.05-3.67,7.06-5.51,12.03-5.51,2.07,0,3.87.27,5.39.82,1.52.54,2.86,1.28,4,2.21,1.14.93,2.09,1.97,2.87,3.1h.39c-.1-.83-.22-2-.35-3.53-.13-1.52-.19-2.88-.19-4.07V0h9.93v58.97h-7.68l-1.86-5.51h-.39c-.78,1.14-1.72,2.19-2.83,3.14-1.11.96-2.46,1.72-4.03,2.29-1.58.57-3.4.85-5.47.85ZM127.24,51.75c3.62,0,6.18-1.02,7.68-3.06s2.25-5.16,2.25-9.35v-1.24c0-4.5-.71-7.95-2.13-10.36-1.42-2.41-4.05-3.61-7.88-3.61-2.95,0-5.21,1.23-6.79,3.69s-2.36,5.91-2.36,10.36.79,7.82,2.36,10.13c1.58,2.3,3.87,3.45,6.87,3.45Z"/>
      <path d="M160.61.62c1.45,0,2.72.39,3.8,1.16s1.63,2.12,1.63,4.03-.54,3.2-1.63,4-2.35,1.2-3.8,1.2c-1.55,0-2.86-.4-3.92-1.2-1.06-.8-1.59-2.14-1.59-4s.53-3.26,1.59-4.03c1.06-.78,2.36-1.16,3.92-1.16ZM165.42,16.91v42.05h-9.85V16.91h9.85Z"/>
      <path d="M211.81,16.91v42.05h-7.68l-1.4-5.43h-.47c-.88,1.45-2.02,2.62-3.41,3.53-1.4.91-2.91,1.58-4.54,2.02-1.63.44-3.35.66-5.16.66-3.1,0-5.79-.53-8.07-1.59-2.28-1.06-4.01-2.73-5.2-5-1.19-2.28-1.78-5.2-1.78-8.77v-27.47h9.85v25.45c0,3.1.62,5.44,1.86,7.02,1.24,1.58,3.18,2.36,5.82,2.36s4.7-.54,6.21-1.63c1.5-1.09,2.56-2.7,3.18-4.85.62-2.15.93-4.77.93-7.88v-20.48h9.85Z"/>
      <path d="M269,16.14c4.76,0,8.35,1.21,10.78,3.65,2.43,2.43,3.65,6.36,3.65,11.79v27.39h-9.78v-25.45c0-3.26-.59-5.65-1.78-7.18-1.19-1.52-3-2.29-5.43-2.29-3.41,0-5.83,1.13-7.25,3.38-1.42,2.25-2.13,5.47-2.13,9.66v21.88h-9.85v-25.45c0-2.17-.26-3.94-.78-5.32-.52-1.37-1.31-2.4-2.37-3.1s-2.39-1.05-4-1.05c-2.43,0-4.32.57-5.66,1.71-1.35,1.14-2.3,2.77-2.87,4.89s-.85,4.73-.85,7.84v20.48h-9.85V16.91h7.68l1.4,5.51h.39c.83-1.35,1.86-2.5,3.1-3.45,1.24-.96,2.66-1.67,4.27-2.13,1.6-.47,3.31-.7,5.12-.7,3.21,0,5.86.54,7.95,1.63,2.09,1.09,3.71,2.74,4.85,4.97h.39c1.4-2.22,3.24-3.88,5.55-4.97,2.3-1.09,4.8-1.63,7.49-1.63Z"/>
      <path d="M320.2,58.97h-9.77V3.57h31.42v8.3h-21.65v16.29h20.17v8.3h-20.17v22.5Z"/>
      <path d="M385.84,37.86c0,3.46-.47,6.56-1.4,9.27-.93,2.71-2.26,5.02-4,6.9-1.74,1.89-3.86,3.31-6.36,4.27-2.51.96-5.32,1.44-8.42,1.44-2.9,0-5.56-.48-7.99-1.44-2.43-.96-4.53-2.38-6.29-4.27-1.76-1.89-3.14-4.19-4.15-6.9-1.01-2.72-1.51-5.81-1.51-9.27,0-4.71.81-8.67,2.44-11.87,1.63-3.21,3.94-5.65,6.94-7.33,3-1.68,6.6-2.52,10.79-2.52,3.93,0,7.38.84,10.36,2.52,2.97,1.68,5.32,4.13,7.02,7.33,1.71,3.21,2.56,7.17,2.56,11.87ZM355.82,37.86c0,2.9.35,5.42,1.05,7.56.7,2.15,1.78,3.79,3.26,4.93,1.47,1.14,3.38,1.71,5.7,1.71s4.23-.57,5.7-1.71c1.47-1.14,2.55-2.78,3.22-4.93.67-2.14,1.01-4.67,1.01-7.56s-.35-5.54-1.05-7.6-1.77-3.66-3.22-4.77c-1.45-1.11-3.36-1.67-5.74-1.67-3.47,0-5.99,1.23-7.57,3.69-1.58,2.46-2.36,5.91-2.36,10.36Z"/>
      <path d="M414.55,16.14c.78,0,1.62.04,2.52.12.9.08,1.64.19,2.21.35l-1.01,9.15c-.62-.1-1.33-.21-2.13-.31-.8-.1-1.67-.16-2.6-.16-1.35,0-2.67.23-3.96.7-1.29.47-2.48,1.19-3.57,2.17s-1.94,2.21-2.56,3.69-.93,3.25-.93,5.31v21.8h-9.85V16.91h7.6l1.4,7.29h.46c.83-1.5,1.86-2.87,3.1-4.11,1.24-1.24,2.65-2.21,4.23-2.91,1.58-.7,3.27-1.05,5.08-1.05Z"/>
      <path d="M471.42,16.14c4.76,0,8.35,1.21,10.78,3.65,2.43,2.43,3.65,6.36,3.65,11.79v27.39h-9.78v-25.45c0-3.26-.59-5.65-1.78-7.18-1.19-1.52-3-2.29-5.43-2.29-3.41,0-5.83,1.13-7.25,3.38-1.42,2.25-2.13,5.47-2.13,9.66v21.88h-9.85v-25.45c0-2.17-.26-3.94-.78-5.32-.52-1.37-1.31-2.4-2.37-3.1s-2.39-1.05-4-1.05c-2.43,0-4.32.57-5.66,1.71-1.35,1.14-2.3,2.77-2.87,4.89s-.85,4.73-.85,7.84v20.48h-9.85V16.91h7.68l1.4,5.51h.39c.83-1.35,1.86-2.5,3.1-3.45,1.24-.96,2.66-1.67,4.27-2.13,1.6-.47,3.31-.7,5.12-.7,3.21,0,5.86.54,7.95,1.63,2.09,1.09,3.71,2.74,4.85,4.97h.39c1.4-2.22,3.24-3.88,5.55-4.97,2.3-1.09,4.8-1.63,7.49-1.63Z"/>
      <path d="M512.31,16.14c5.23,0,9.17,1.2,11.83,3.61,2.66,2.41,4,6.07,4,10.98v28.24h-6.98l-1.86-5.82h-.31c-1.19,1.5-2.42,2.74-3.69,3.72s-2.73,1.71-4.38,2.17-3.65.7-5.97.7c-2.48,0-4.72-.47-6.71-1.4-1.99-.93-3.56-2.35-4.69-4.27-1.14-1.91-1.71-4.34-1.71-7.29,0-4.29,1.62-7.57,4.85-9.82s8.11-3.48,14.63-3.69l7.06-.23v-1.78c0-2.84-.65-4.85-1.94-6.01s-3.08-1.74-5.35-1.74c-2.02,0-4.02.32-6.01.97-1.99.65-3.92,1.38-5.78,2.21l-2.95-6.83c2.07-1.14,4.47-2.04,7.22-2.72,2.74-.67,5.66-1.01,8.77-1.01ZM513.24,39.26c-4.24.21-7.19.92-8.84,2.13-1.66,1.22-2.48,2.94-2.48,5.16,0,1.97.59,3.43,1.78,4.39s2.72,1.44,4.58,1.44c2.84,0,5.24-.83,7.18-2.48,1.94-1.65,2.91-4.06,2.91-7.21v-3.57l-5.12.16Z"/>
      <path d="M553.43,51.91c1.24,0,2.43-.12,3.57-.35,1.14-.23,2.2-.51,3.18-.82v7.29c-1.04.47-2.38.87-4.03,1.2-1.66.34-3.39.51-5.2.51-2.38,0-4.54-.4-6.48-1.2-1.94-.8-3.49-2.18-4.65-4.15-1.16-1.97-1.74-4.7-1.74-8.22v-21.88h-5.66v-4.27l6.21-3.41,3.1-8.92h6.13v9.23h11.95v7.37h-11.95v21.8c0,1.97.52,3.43,1.55,4.38s2.38,1.44,4.03,1.44Z"/>
      <path d="M578.5,23.49c-1.68,0-3.22-.28-4.63-.85s-2.63-1.37-3.67-2.41-1.84-2.26-2.41-3.67c-.57-1.41-.85-2.95-.85-4.63s.29-3.15.87-4.55c.58-1.39,1.39-2.62,2.42-3.67s2.26-1.87,3.67-2.46c1.41-.59,2.94-.88,4.6-.88s3.09.28,4.49.85c1.39.57,2.62,1.37,3.68,2.41,1.06,1.04,1.89,2.26,2.49,3.67.6,1.41.9,2.95.9,4.63s-.28,3.22-.85,4.63c-.57,1.41-1.37,2.63-2.41,3.67s-2.26,1.84-3.67,2.41c-1.41.57-2.95.85-4.63.85ZM578.5,21.6c1.32,0,2.55-.24,3.7-.71,1.14-.47,2.15-1.14,3.02-2.01.87-.87,1.55-1.89,2.05-3.07.49-1.17.74-2.47.74-3.87s-.24-2.6-.71-3.76c-.47-1.16-1.14-2.19-2-3.09-.86-.89-1.87-1.59-3.02-2.09-1.16-.5-2.41-.76-3.78-.76s-2.66.24-3.81.72c-1.16.48-2.16,1.16-3.02,2.01-.86.86-1.53,1.88-2.01,3.07-.48,1.19-.73,2.48-.73,3.89s.24,2.67.71,3.84c.47,1.18,1.13,2.2,1.98,3.07s1.86,1.55,3.02,2.03,2.45.72,3.86.72ZM574.09,18.83V4.98h4.12c1.72,0,2.98.35,3.78,1.05s1.2,1.74,1.2,3.1c0,.99-.25,1.77-.76,2.35-.5.58-1.07.99-1.7,1.24l3.65,6.11h-2.8l-3.05-5.35h-1.95v5.35h-2.49ZM578.15,11.43c.82,0,1.44-.21,1.87-.63.43-.42.65-.96.65-1.61,0-.74-.19-1.27-.58-1.61s-1.04-.5-1.97-.5h-1.54v4.34h1.57Z"/>
    </g>
  </g>
</svg>